<?xml version="1.0" encoding="UTF-8" standalone="no"?>
<!-- Created with Inkscape (http://www.inkscape.org/) -->

<svg
   width="1920"
   height="1080"
   viewBox="0 0 1920 1080"
   version="1.1"
   id="SVGRoot"
   sodipodi:docname="controller_banner.svg"
   inkscape:version="1.1.2 (0a00cf5339, 2022-02-04, custom)"
   inkscape:export-filename="/home/martin/Bilder/Bilder/MidnightControlsBanner.png"
   inkscape:export-xdpi="96"
   inkscape:export-ydpi="96"
   xmlns:inkscape="http://www.inkscape.org/namespaces/inkscape"
   xmlns:sodipodi="http://sodipodi.sourceforge.net/DTD/sodipodi-0.dtd"
   xmlns:xlink="http://www.w3.org/1999/xlink"
   xmlns="http://www.w3.org/2000/svg"
   xmlns:svg="http://www.w3.org/2000/svg">
  <sodipodi:namedview
     id="namedview893"
     pagecolor="#505050"
     bordercolor="#eeeeee"
     borderopacity="1"
     inkscape:pageshadow="0"
     inkscape:pageopacity="0"
     inkscape:pagecheckerboard="0"
     inkscape:document-units="px"
     showgrid="true"
     inkscape:zoom="0.40120419"
     inkscape:cx="928.45492"
     inkscape:cy="816.29258"
     inkscape:window-width="1920"
     inkscape:window-height="1050"
     inkscape:window-x="1920"
     inkscape:window-y="30"
     inkscape:window-maximized="1"
     inkscape:current-layer="layer1">
    <inkscape:grid
       type="xygrid"
       id="grid956" />
  </sodipodi:namedview>
  <defs
     id="defs888">
    <linearGradient
       inkscape:collect="always"
       id="linearGradient2059">
      <stop
         style="stop-color:#ed02a0;stop-opacity:0.72909278"
         offset="0"
         id="stop2055" />
      <stop
         style="stop-color:#8900cb;stop-opacity:0.73234183"
         offset="1"
         id="stop2057" />
    </linearGradient>
    <inkscape:path-effect
       effect="powerclip"
       id="path-effect904"
       is_visible="true"
       lpeversion="1"
       inverse="true"
       flatten="false"
       hide_clip="false"
       message="Füllregel Gerade-Ungerade im &lt;b&gt;Füllung und Kontur&lt;/b&gt;-Dialog verwenden, wenn das Anwenden des Ausschnitts mit nachfolgendem Umwandeln in Pfade kein Ergebnis bringt" />
    <inkscape:path-effect
       effect="powerclip"
       id="path-effect900"
       is_visible="true"
       lpeversion="1"
       inverse="true"
       flatten="false"
       hide_clip="false"
       message="Füllregel Gerade-Ungerade im &lt;b&gt;Füllung und Kontur&lt;/b&gt;-Dialog verwenden, wenn das Anwenden des Ausschnitts mit nachfolgendem Umwandeln in Pfade kein Ergebnis bringt" />
    <inkscape:path-effect
       effect="powerclip"
       id="path-effect896"
       is_visible="true"
       lpeversion="1"
       inverse="true"
       flatten="false"
       hide_clip="false"
       message="Füllregel Gerade-Ungerade im &lt;b&gt;Füllung und Kontur&lt;/b&gt;-Dialog verwenden, wenn das Anwenden des Ausschnitts mit nachfolgendem Umwandeln in Pfade kein Ergebnis bringt" />
    <rect
       x="500"
       y="800"
       width="840"
       height="220"
       id="rect7833" />
    <linearGradient
       inkscape:collect="always"
       id="linearGradient1152">
      <stop
         style="stop-color:#ed02a0;stop-opacity:1"
         offset="0"
         id="stop1148" />
      <stop
         style="stop-color:#8900cb;stop-opacity:1"
         offset="1"
         id="stop1150" />
    </linearGradient>
    <linearGradient
       inkscape:collect="always"
       xlink:href="#linearGradient2059"
       id="linearGradient1154"
       x1="0"
       y1="0"
       x2="1920"
       y2="1080"
       gradientUnits="userSpaceOnUse" />
    <linearGradient
       inkscape:collect="always"
       xlink:href="#linearGradient1152"
       id="linearGradient4289"
       x1="-398"
       y1="56"
       x2="1522"
       y2="1136"
       gradientUnits="userSpaceOnUse"
       gradientTransform="translate(398,-56)" />
    <linearGradient
       inkscape:collect="always"
       xlink:href="#linearGradient1152"
       id="linearGradient7579"
       x1="-398"
       y1="56"
       x2="1522"
       y2="1136"
       gradientUnits="userSpaceOnUse"
       gradientTransform="translate(398,-56)" />
    <clipPath
       clipPathUnits="userSpaceOnUse"
       id="clipPath878">
      <path
         id="path880"
         style="display:none;fill:url(#linearGradient882);stroke-width:1.00028"
         d="m 1170.0221,-4.111892 a 21.817197,20.751893 3.393352 0 0 -8.3753,3.68511674 21.817197,20.751893 3.393352 0 0 -4.1775,28.99380526 l 0.2304,0.284584 a 21.817197,20.751893 3.393352 0 0 30.5488,3.770316 21.817197,20.751893 3.393352 0 0 3.9128,-29.0289691 21.817197,20.751893 3.393352 0 0 -22.1392,-7.7048529 z M 858.04762,85.714292 c -7.15183,1.731644 -11.32417,8.932859 -9.35312,16.146398 l 22.2005,81.24794 c 1.97106,7.21354 9.31675,11.62594 16.46858,9.8943 L 1086.714,144.73497 c 7.1518,-1.73163 11.3223,-8.9324 9.3512,-16.14595 l -22.2005,-81.247936 c -1.971,-7.213536 -9.3149,-11.626381 -16.4667,-9.894748 z M 756.02165,124.73884 a 50.906793,48.421082 3.3933293 0 0 -19.54511,8.59585 50.906793,48.421082 3.3933293 0 0 -9.74699,67.65414 l 0.53564,0.66651 a 50.906793,48.421082 3.3933293 0 0 71.28286,8.79621 50.906793,48.421082 3.3933293 0 0 9.13065,-67.73384 50.906793,48.421082 3.3933293 0 0 -51.65705,-17.97887 z M 1139.8366,44.661798 a 21.817197,20.751893 3.393352 0 0 -8.3752,3.685094 21.817197,20.751893 3.393352 0 0 -4.1775,28.993805 l 0.2304,0.284584 a 21.817197,20.751893 3.393352 0 0 30.5487,3.770339 21.817197,20.751893 3.393352 0 0 3.9147,-29.029436 21.817197,20.751893 3.393352 0 0 -22.1411,-7.704386 z m 84.4396,-20.445031 a 21.817197,20.751893 3.393352 0 0 -8.3754,3.685117 21.817197,20.751893 3.393352 0 0 -4.1774,28.993806 l 0.2285,0.285027 a 21.817197,20.751893 3.393352 0 0 30.5488,3.77034 21.817197,20.751893 3.393352 0 0 3.9147,-29.02946 21.817197,20.751893 3.393352 0 0 -22.1392,-7.70483 z M 1193.05,74.672751 a 21.817197,20.751893 3.393352 0 0 -8.3759,3.68321 21.817197,20.751893 3.393352 0 0 -4.1769,28.995709 l 0.2303,0.28458 a 21.817197,20.751893 3.393352 0 0 30.5488,3.77035 21.817197,20.751893 3.393352 0 0 3.9128,-29.029006 21.817197,20.751893 3.393352 0 0 -22.1391,-7.704843 z M 865.52481,226.88685 c -7.36616,1.78355 -11.66248,9.20165 -9.63236,16.63136 l 5.86309,21.45735 -27.90161,6.7557 c -7.15183,1.73165 -11.32229,8.9324 -9.35123,16.14595 l 2.77837,10.1681 c 1.97106,7.21354 9.31487,11.6264 16.46669,9.89476 l 27.90161,-6.75571 6.22966,22.7989 c 2.03012,7.42971 9.59558,11.97577 16.96174,10.19223 l 8.59091,-2.08008 c 7.36616,-1.78354 11.6606,-9.2012 9.63048,-16.63091 l -6.22966,-22.7989 23.68151,-5.73391 c 7.15183,-1.73165 11.32229,-8.93242 9.35123,-16.14595 l -2.77837,-10.16811 c -1.97106,-7.21354 -9.31486,-11.62639 -16.46669,-9.89474 l -23.68151,5.73391 -5.86309,-21.45735 c -2.03012,-7.42971 -9.5937,-11.97623 -16.95987,-10.19269 z m 272.15169,-63.56116 a 50.906793,48.421082 3.3933293 0 0 -19.5432,8.59539 50.906793,48.421082 3.3933293 0 0 -9.747,67.65414 l 0.5356,0.66651 a 50.906793,48.421082 3.3933293 0 0 71.2829,8.79621 50.906793,48.421082 3.3933293 0 0 9.1307,-67.73384 50.906793,48.421082 3.3933293 0 0 -51.659,-17.97841 z" />
      <path
         id="lpe_path-effect896"
         style="fill:url(#linearGradient882);stroke-width:1.00028"
         class="powerclip"
         d="M 636.0108,56.943474 H 846.95389 V 569.86886 H 636.0108 Z m 534.0113,-61.055366 a 21.817197,20.751893 3.393352 0 0 -8.3753,3.68511674 21.817197,20.751893 3.393352 0 0 -4.1775,28.99380526 l 0.2304,0.284584 a 21.817197,20.751893 3.393352 0 0 30.5488,3.770316 21.817197,20.751893 3.393352 0 0 3.9128,-29.0289691 21.817197,20.751893 3.393352 0 0 -22.1392,-7.7048529 z M 858.04762,85.714292 c -7.15183,1.731644 -11.32417,8.932859 -9.35312,16.146398 l 22.2005,81.24794 c 1.97106,7.21354 9.31675,11.62594 16.46858,9.8943 L 1086.714,144.73497 c 7.1518,-1.73163 11.3223,-8.9324 9.3512,-16.14595 l -22.2005,-81.247936 c -1.971,-7.213536 -9.3149,-11.626381 -16.4667,-9.894748 z M 756.02165,124.73884 a 50.906793,48.421082 3.3933293 0 0 -19.54511,8.59585 50.906793,48.421082 3.3933293 0 0 -9.74699,67.65414 l 0.53564,0.66651 a 50.906793,48.421082 3.3933293 0 0 71.28286,8.79621 50.906793,48.421082 3.3933293 0 0 9.13065,-67.73384 50.906793,48.421082 3.3933293 0 0 -51.65705,-17.97887 z M 1139.8366,44.661798 a 21.817197,20.751893 3.393352 0 0 -8.3752,3.685094 21.817197,20.751893 3.393352 0 0 -4.1775,28.993805 l 0.2304,0.284584 a 21.817197,20.751893 3.393352 0 0 30.5487,3.770339 21.817197,20.751893 3.393352 0 0 3.9147,-29.029436 21.817197,20.751893 3.393352 0 0 -22.1411,-7.704386 z m 84.4396,-20.445031 a 21.817197,20.751893 3.393352 0 0 -8.3754,3.685117 21.817197,20.751893 3.393352 0 0 -4.1774,28.993806 l 0.2285,0.285027 a 21.817197,20.751893 3.393352 0 0 30.5488,3.77034 21.817197,20.751893 3.393352 0 0 3.9147,-29.02946 21.817197,20.751893 3.393352 0 0 -22.1392,-7.70483 z M 1193.05,74.672751 a 21.817197,20.751893 3.393352 0 0 -8.3759,3.68321 21.817197,20.751893 3.393352 0 0 -4.1769,28.995709 l 0.2303,0.28458 a 21.817197,20.751893 3.393352 0 0 30.5488,3.77035 21.817197,20.751893 3.393352 0 0 3.9128,-29.029006 21.817197,20.751893 3.393352 0 0 -22.1391,-7.704843 z M 865.52481,226.88685 c -7.36616,1.78355 -11.66248,9.20165 -9.63236,16.63136 l 5.86309,21.45735 -27.90161,6.7557 c -7.15183,1.73165 -11.32229,8.9324 -9.35123,16.14595 l 2.77837,10.1681 c 1.97106,7.21354 9.31487,11.6264 16.46669,9.89476 l 27.90161,-6.75571 6.22966,22.7989 c 2.03012,7.42971 9.59558,11.97577 16.96174,10.19223 l 8.59091,-2.08008 c 7.36616,-1.78354 11.6606,-9.2012 9.63048,-16.63091 l -6.22966,-22.7989 23.68151,-5.73391 c 7.15183,-1.73165 11.32229,-8.93242 9.35123,-16.14595 l -2.77837,-10.16811 c -1.97106,-7.21354 -9.31486,-11.62639 -16.46669,-9.89474 l -23.68151,5.73391 -5.86309,-21.45735 c -2.03012,-7.42971 -9.5937,-11.97623 -16.95987,-10.19269 z m 272.15169,-63.56116 a 50.906793,48.421082 3.3933293 0 0 -19.5432,8.59539 50.906793,48.421082 3.3933293 0 0 -9.747,67.65414 l 0.5356,0.66651 a 50.906793,48.421082 3.3933293 0 0 71.2829,8.79621 50.906793,48.421082 3.3933293 0 0 9.1307,-67.73384 50.906793,48.421082 3.3933293 0 0 -51.659,-17.97841 z" />
    </clipPath>
    <linearGradient
       inkscape:collect="always"
       xlink:href="#linearGradient1152"
       id="linearGradient882"
       gradientUnits="userSpaceOnUse"
       gradientTransform="matrix(0.96459266,-0.23355313,0.26584317,0.97291549,369.02066,-147.43741)"
       x1="-398"
       y1="56"
       x2="1522"
       y2="1136" />
    <clipPath
       clipPathUnits="userSpaceOnUse"
       id="clipPath884">
      <path
         id="path886"
         style="display:none;fill:url(#linearGradient888);stroke-width:1.00027"
         d="m 1026.6374,528.82806 a 20.752793,21.815894 86.926601 0 0 -9.2243,-0.58528 20.752793,21.815894 86.926601 0 0 -18.53105,23.48045 l 0.0557,0.35396 a 20.752793,21.815894 86.926601 0 0 24.81605,17.20206 20.752793,21.815894 86.926601 0 0 18.3173,-23.63171 20.752793,21.815894 86.926601 0 0 -15.4337,-16.81948 z M 707.37883,465.4963 c -7.15078,-1.7386 -14.49832,2.66675 -16.47273,9.87849 l -22.23828,81.2277 c -1.97441,7.21175 2.19438,14.41711 9.34515,16.15571 l 199.32113,48.46175 c 7.15073,1.73859 14.49643,-2.66722 16.47084,-9.87896 l 22.23828,-81.2277 c 1.97441,-7.21174 -2.19254,-14.41666 -9.34327,-16.15524 z M 598.02135,453.23104 a 48.423182,50.903752 86.926623 0 0 -21.5241,-1.36927 48.423182,50.903752 86.926623 0 0 -43.23978,54.7896 l 0.12713,0.82721 a 48.423182,50.903752 86.926623 0 0 57.90649,40.13811 48.423182,50.903752 86.926623 0 0 42.74098,-55.13985 48.423182,50.903752 86.926623 0 0 -36.01072,-39.2458 z m 377.16446,104.5578 a 20.752793,21.815894 86.926601 0 0 -9.22414,-0.58526 20.752793,21.815894 86.926601 0 0 -18.53108,23.48045 l 0.0557,0.35396 a 20.752793,21.815894 86.926601 0 0 24.8159,17.20204 20.752793,21.815894 86.926601 0 0 18.31921,-23.63124 20.752793,21.815894 86.926601 0 0 -15.43563,-16.81995 z m 84.42719,20.52712 a 20.752793,21.815894 86.926601 0 0 -9.2243,-0.58529 20.752793,21.815894 86.926601 0 0 -18.531,23.48045 l 0.054,0.35352 a 20.752793,21.815894 86.926601 0 0 24.8159,17.20204 20.752793,21.815894 86.926601 0 0 18.3193,-23.63122 20.752793,21.815894 86.926601 0 0 -15.4338,-16.8195 z m -53.2258,29.9599 a 20.752793,21.815894 86.926601 0 0 -9.22373,-0.58718 20.752793,21.815894 86.926601 0 0 -18.53161,23.48235 l 0.0557,0.35395 a 20.752793,21.815894 86.926601 0 0 24.81584,17.20205 20.752793,21.815894 86.926601 0 0 18.3174,-23.63169 20.752793,21.815894 86.926601 0 0 -15.4337,-16.81948 z M 641.50831,592.48259 c -7.36508,-1.79069 -14.93245,2.74811 -16.96603,10.17597 l -5.87307,21.452 -27.8975,-6.78283 c -7.15078,-1.7386 -14.49644,2.6672 -16.47085,9.87895 l -2.7831,10.16557 c -1.97441,7.21174 2.1925,14.41666 9.34328,16.15525 l 27.8975,6.78284 -6.24026,22.79322 c -2.03358,7.42786 2.25909,14.85024 9.62417,16.64094 l 8.58964,2.08844 c 7.36508,1.7907 14.93057,-2.74856 16.96415,-10.17642 l 6.24026,-22.79322 23.67803,5.75693 c 7.15078,1.7386 14.49644,-2.66722 16.47085,-9.87896 l 2.7831,-10.16557 c 1.97441,-7.21175 -2.1925,-14.41665 -9.34328,-16.15525 l -23.67803,-5.75693 5.87307,-21.45201 c 2.03358,-7.42785 -2.25721,-14.84978 -9.62229,-16.64048 z m 270.91446,68.20272 a 48.423182,50.903752 86.926623 0 0 -21.52221,-1.3688 48.423182,50.903752 86.926623 0 0 -43.23975,54.78961 l 0.12708,0.8272 a 48.423182,50.903752 86.926623 0 0 57.90652,40.13811 48.423182,50.903752 86.926623 0 0 42.74097,-55.13984 48.423182,50.903752 86.926623 0 0 -36.01261,-39.24628 z" />
      <path
         id="lpe_path-effect900"
         style="fill:url(#linearGradient888);stroke-width:1.00027"
         class="powerclip"
         d="M 912.35657,483.93158 H 1121.6656 V 998.54486 H 912.35657 Z m 114.28083,44.89648 a 20.752793,21.815894 86.926601 0 0 -9.2243,-0.58528 20.752793,21.815894 86.926601 0 0 -18.53105,23.48045 l 0.0557,0.35396 a 20.752793,21.815894 86.926601 0 0 24.81605,17.20206 20.752793,21.815894 86.926601 0 0 18.3173,-23.63171 20.752793,21.815894 86.926601 0 0 -15.4337,-16.81948 z M 707.37883,465.4963 c -7.15078,-1.7386 -14.49832,2.66675 -16.47273,9.87849 l -22.23828,81.2277 c -1.97441,7.21175 2.19438,14.41711 9.34515,16.15571 l 199.32113,48.46175 c 7.15073,1.73859 14.49643,-2.66722 16.47084,-9.87896 l 22.23828,-81.2277 c 1.97441,-7.21174 -2.19254,-14.41666 -9.34327,-16.15524 z M 598.02135,453.23104 a 48.423182,50.903752 86.926623 0 0 -21.5241,-1.36927 48.423182,50.903752 86.926623 0 0 -43.23978,54.7896 l 0.12713,0.82721 a 48.423182,50.903752 86.926623 0 0 57.90649,40.13811 48.423182,50.903752 86.926623 0 0 42.74098,-55.13985 48.423182,50.903752 86.926623 0 0 -36.01072,-39.2458 z m 377.16446,104.5578 a 20.752793,21.815894 86.926601 0 0 -9.22414,-0.58526 20.752793,21.815894 86.926601 0 0 -18.53108,23.48045 l 0.0557,0.35396 a 20.752793,21.815894 86.926601 0 0 24.8159,17.20204 20.752793,21.815894 86.926601 0 0 18.31921,-23.63124 20.752793,21.815894 86.926601 0 0 -15.43563,-16.81995 z m 84.42719,20.52712 a 20.752793,21.815894 86.926601 0 0 -9.2243,-0.58529 20.752793,21.815894 86.926601 0 0 -18.531,23.48045 l 0.054,0.35352 a 20.752793,21.815894 86.926601 0 0 24.8159,17.20204 20.752793,21.815894 86.926601 0 0 18.3193,-23.63122 20.752793,21.815894 86.926601 0 0 -15.4338,-16.8195 z m -53.2258,29.9599 a 20.752793,21.815894 86.926601 0 0 -9.22373,-0.58718 20.752793,21.815894 86.926601 0 0 -18.53161,23.48235 l 0.0557,0.35395 a 20.752793,21.815894 86.926601 0 0 24.81584,17.20205 20.752793,21.815894 86.926601 0 0 18.3174,-23.63169 20.752793,21.815894 86.926601 0 0 -15.4337,-16.81948 z M 641.50831,592.48259 c -7.36508,-1.79069 -14.93245,2.74811 -16.96603,10.17597 l -5.87307,21.452 -27.8975,-6.78283 c -7.15078,-1.7386 -14.49644,2.6672 -16.47085,9.87895 l -2.7831,10.16557 c -1.97441,7.21174 2.1925,14.41666 9.34328,16.15525 l 27.8975,6.78284 -6.24026,22.79322 c -2.03358,7.42786 2.25909,14.85024 9.62417,16.64094 l 8.58964,2.08844 c 7.36508,1.7907 14.93057,-2.74856 16.96415,-10.17642 l 6.24026,-22.79322 23.67803,5.75693 c 7.15078,1.7386 14.49644,-2.66722 16.47085,-9.87896 l 2.7831,-10.16557 c 1.97441,-7.21175 -2.1925,-14.41665 -9.34328,-16.15525 l -23.67803,-5.75693 5.87307,-21.45201 c 2.03358,-7.42785 -2.25721,-14.84978 -9.62229,-16.64048 z m 270.91446,68.20272 a 48.423182,50.903752 86.926623 0 0 -21.52221,-1.3688 48.423182,50.903752 86.926623 0 0 -43.23975,54.78961 l 0.12708,0.8272 a 48.423182,50.903752 86.926623 0 0 57.90652,40.13811 48.423182,50.903752 86.926623 0 0 42.74097,-55.13984 48.423182,50.903752 86.926623 0 0 -36.01261,-39.24628 z" />
    </clipPath>
    <linearGradient
       inkscape:collect="always"
       xlink:href="#linearGradient1152"
       id="linearGradient888"
       gradientUnits="userSpaceOnUse"
       gradientTransform="matrix(0.96445087,0.23449084,-0.26629564,0.97267307,398.764,38.857662)"
       x1="-398"
       y1="56"
       x2="1522"
       y2="1136" />
    <clipPath
       clipPathUnits="userSpaceOnUse"
       id="clipPath890">
      <path
         id="path892"
         style="display:none;fill:url(#linearGradient894)"
         d="m 1138.793,269.14648 a 21.88452,20.676565 0 0 0 -9.1231,1.59766 21.88452,20.676565 0 0 0 -11.7656,26.97656 l 0.1484,0.32813 a 21.88452,20.676565 0 0 0 28.7032,10.76562 21.88452,20.676565 0 0 0 11.5175,-27.07226 21.88452,20.676565 0 0 0 -19.4804,-12.59571 z m -327.22269,13.7754 c -7.41435,0 -13.38476,5.96846 -13.38476,13.38281 v 83.50976 c 0,7.41436 5.97041,13.38282 13.38476,13.38282 h 206.66799 c 7.4143,0 13.3828,-5.96846 13.3828,-13.38282 v -83.50976 c 0,-7.41435 -5.9685,-13.38281 -13.3828,-13.38281 z m -109.57617,13.80664 a 51.063881,48.245316 0 0 0 -21.28906,3.7246 51.063881,48.245316 0 0 0 -27.45313,62.94727 l 0.34375,0.76758 a 51.063881,48.245316 0 0 0 66.97657,25.11914 51.063881,48.245316 0 0 0 26.875,-63.16797 51.063881,48.245316 0 0 0 -45.45313,-29.39062 z m 394.48826,12.39257 a 21.88452,20.676565 0 0 0 -9.123,1.59766 21.88452,20.676565 0 0 0 -11.7656,26.97656 l 0.1484,0.32813 a 21.88452,20.676565 0 0 0 28.7031,10.76562 21.88452,20.676565 0 0 0 11.5195,-27.07226 21.88452,20.676565 0 0 0 -19.4824,-12.59571 z m 87.5391,0 a 21.88452,20.676565 0 0 0 -9.1231,1.59766 21.88452,20.676565 0 0 0 -11.7656,26.97656 l 0.1465,0.32813 a 21.88452,20.676565 0 0 0 28.7031,10.76562 21.88452,20.676565 0 0 0 11.5196,-27.07226 21.88452,20.676565 0 0 0 -19.4805,-12.59571 z m -43.7695,41.35352 a 21.88452,20.676565 0 0 0 -9.1231,1.5957 21.88452,20.676565 0 0 0 -11.7656,26.97852 l 0.1484,0.32812 a 21.88452,20.676565 0 0 0 28.7031,10.76563 21.88452,20.676565 0 0 0 11.5176,-27.07227 21.88452,20.676565 0 0 0 -19.4804,-12.5957 z m -358.91997,70.29101 c -7.63655,10e-6 -13.78515,6.14862 -13.78515,13.78516 v 22.05469 h -28.92579 c -7.41435,0 -13.38281,5.96845 -13.38281,13.38281 v 10.45117 c 0,7.41435 5.96846,13.38282 13.38281,13.38282 h 28.92579 v 23.43359 c 0,7.63654 6.1486,13.78516 13.78515,13.78516 h 8.90625 c 7.63655,0 13.7832,-6.14862 13.7832,-13.78516 v -23.43359 h 24.55079 c 7.41435,0 13.38281,-5.96847 13.38281,-13.38282 v -10.45117 c 0,-7.41436 -5.96846,-13.38281 -13.38281,-13.38281 h -24.55079 v -22.05469 c 0,-7.63654 -6.14665,-13.78516 -13.7832,-13.78516 z m 281.52147,2.25 a 51.063881,48.245316 0 0 0 -21.2871,3.72461 51.063881,48.245316 0 0 0 -27.4531,62.94727 l 0.3437,0.76758 a 51.063881,48.245316 0 0 0 66.9766,25.11914 51.063881,48.245316 0 0 0 26.875,-63.16797 51.063881,48.245316 0 0 0 -45.4551,-29.39063 z" />
      <path
         id="lpe_path-effect904"
         style="fill:url(#linearGradient894)"
         class="powerclip"
         d="M 571.42297,222.78436 H 1252.5483 V 563.60941 H 571.42297 Z m 567.37003,46.36212 a 21.88452,20.676565 0 0 0 -9.1231,1.59766 21.88452,20.676565 0 0 0 -11.7656,26.97656 l 0.1484,0.32813 a 21.88452,20.676565 0 0 0 28.7032,10.76562 21.88452,20.676565 0 0 0 11.5175,-27.07226 21.88452,20.676565 0 0 0 -19.4804,-12.59571 z m -327.22269,13.7754 c -7.41435,0 -13.38476,5.96846 -13.38476,13.38281 v 83.50976 c 0,7.41436 5.97041,13.38282 13.38476,13.38282 h 206.66799 c 7.4143,0 13.3828,-5.96846 13.3828,-13.38282 v -83.50976 c 0,-7.41435 -5.9685,-13.38281 -13.3828,-13.38281 z m -109.57617,13.80664 a 51.063881,48.245316 0 0 0 -21.28906,3.7246 51.063881,48.245316 0 0 0 -27.45313,62.94727 l 0.34375,0.76758 a 51.063881,48.245316 0 0 0 66.97657,25.11914 51.063881,48.245316 0 0 0 26.875,-63.16797 51.063881,48.245316 0 0 0 -45.45313,-29.39062 z m 394.48826,12.39257 a 21.88452,20.676565 0 0 0 -9.123,1.59766 21.88452,20.676565 0 0 0 -11.7656,26.97656 l 0.1484,0.32813 a 21.88452,20.676565 0 0 0 28.7031,10.76562 21.88452,20.676565 0 0 0 11.5195,-27.07226 21.88452,20.676565 0 0 0 -19.4824,-12.59571 z m 87.5391,0 a 21.88452,20.676565 0 0 0 -9.1231,1.59766 21.88452,20.676565 0 0 0 -11.7656,26.97656 l 0.1465,0.32813 a 21.88452,20.676565 0 0 0 28.7031,10.76562 21.88452,20.676565 0 0 0 11.5196,-27.07226 21.88452,20.676565 0 0 0 -19.4805,-12.59571 z m -43.7695,41.35352 a 21.88452,20.676565 0 0 0 -9.1231,1.5957 21.88452,20.676565 0 0 0 -11.7656,26.97852 l 0.1484,0.32812 a 21.88452,20.676565 0 0 0 28.7031,10.76563 21.88452,20.676565 0 0 0 11.5176,-27.07227 21.88452,20.676565 0 0 0 -19.4804,-12.5957 z m -358.91997,70.29101 c -7.63655,10e-6 -13.78515,6.14862 -13.78515,13.78516 v 22.05469 h -28.92579 c -7.41435,0 -13.38281,5.96845 -13.38281,13.38281 v 10.45117 c 0,7.41435 5.96846,13.38282 13.38281,13.38282 h 28.92579 v 23.43359 c 0,7.63654 6.1486,13.78516 13.78515,13.78516 h 8.90625 c 7.63655,0 13.7832,-6.14862 13.7832,-13.78516 v -23.43359 h 24.55079 c 7.41435,0 13.38281,-5.96847 13.38281,-13.38282 v -10.45117 c 0,-7.41436 -5.96846,-13.38281 -13.38281,-13.38281 h -24.55079 v -22.05469 c 0,-7.63654 -6.14665,-13.78516 -13.7832,-13.78516 z m 281.52147,2.25 a 51.063881,48.245316 0 0 0 -21.2871,3.72461 51.063881,48.245316 0 0 0 -27.4531,62.94727 l 0.3437,0.76758 a 51.063881,48.245316 0 0 0 66.9766,25.11914 51.063881,48.245316 0 0 0 26.875,-63.16797 51.063881,48.245316 0 0 0 -45.4551,-29.39063 z" />
    </clipPath>
    <linearGradient
       inkscape:collect="always"
       xlink:href="#linearGradient1152"
       id="linearGradient894"
       gradientUnits="userSpaceOnUse"
       gradientTransform="translate(398,-56)"
       x1="-398"
       y1="56"
       x2="1522"
       y2="1136" />
  </defs>
  <g
     inkscape:label="Ebene 1"
     inkscape:groupmode="layer"
     id="layer1">
    <rect
       style="fill:url(#linearGradient1154);fill-opacity:1"
       id="rect1033"
       width="1920"
       height="1080"
       x="0"
       y="0"
       rx="0"
       ry="0" />
    <path
       style="fill:#ffffff;fill-opacity:1;stroke-width:1.41813"
       id="rect2078"
       width="671.12531"
       height="330.82504"
       x="576.42297"
       y="227.78436"
       ry="110.27502"
       sodipodi:type="rect"
       clip-path="url(#clipPath890)"
       inkscape:path-effect="#path-effect904"
       d="m 686.69799,227.78436 h 450.57531 c 61.0923,0 110.275,49.18266 110.275,110.27502 v 110.27501 c 0,61.09236 -49.1827,110.27502 -110.275,110.27502 H 686.69799 c -61.09236,0 -110.27502,-49.18266 -110.27502,-110.27502 V 338.05938 c 0,-61.09236 49.18266,-110.27502 110.27502,-110.27502 z" />
    <path
       style="fill:#ffffff;fill-opacity:1;stroke-width:1.41852"
       id="rect2146"
       width="199.30905"
       height="504.61328"
       x="917.35657"
       y="488.93158"
       ry="97.030388"
       transform="matrix(0.97214881,-0.23436445,0.26615211,0.96393104,0,0)"
       sodipodi:type="rect"
       clip-path="url(#clipPath884)"
       inkscape:path-effect="#path-effect900"
       d="m 1014.387,488.93158 h 5.2482 c 53.7549,0 97.0304,43.27555 97.0304,97.03039 v 310.5525 c 0,53.75484 -43.2755,97.03039 -97.0304,97.03039 h -5.2482 c -53.75488,0 -97.03043,-43.27555 -97.03043,-97.03039 v -310.5525 c 0,-53.75484 43.27555,-97.03039 97.03043,-97.03039 z" />
    <path
       style="fill:#ffffff;fill-opacity:1;stroke-width:1.41852"
       id="rect2146-3"
       width="200.94308"
       height="502.92538"
       x="641.0108"
       y="61.943474"
       ry="97.050156"
       transform="matrix(0.97237519,0.23342343,-0.26569554,0.96405699,0,0)"
       sodipodi:type="rect"
       clip-path="url(#clipPath878)"
       inkscape:path-effect="#path-effect896"
       d="m 738.06096,61.943474 h 6.84277 c 53.76579,0 97.05016,43.284366 97.05016,97.050156 V 467.8187 c 0,53.76579 -43.28437,97.05016 -97.05016,97.05016 h -6.84277 c -53.76579,0 -97.05016,-43.28437 -97.05016,-97.05016 V 158.99363 c 0,-53.76579 43.28437,-97.050156 97.05016,-97.050156 z" />
    <rect
       style="fill:#ffffff;fill-opacity:1;stroke-width:1.41813"
       id="rect2384"
       width="87.538078"
       height="55.137505"
       x="649.37134"
       y="214"
       ry="27.568752" />
    <rect
       style="fill:#ffffff;fill-opacity:1;stroke-width:1.41813"
       id="rect2384-6"
       width="87.538078"
       height="55.137505"
       x="1089.9797"
       y="214"
       ry="27.568752" />
  </g>
</svg>
